# Blender 5.1.2
# www.blender.org
mtllib steak.mtl
o GrilledMeat
v -0.941040 0.206434 0.795406
v 0.726747 0.206434 0.994878
v -0.589922 0.206433 -1.087956
v 0.304911 0.206434 -1.065488
v 1.454880 0.206434 -0.009144
v -1.186567 0.206434 -0.078157
v -1.192839 0.206434 -0.227807
v -1.027711 0.206434 -0.670235
v -1.153954 0.206434 -0.417255
v -0.763814 0.206433 -0.931156
v -0.923117 0.206434 -0.809078
v -1.091715 0.206434 -0.519920
v -0.466887 0.206433 -1.116523
v -0.340517 0.206433 -1.158892
v 0.059680 0.206433 -1.104524
v -0.068298 0.206433 -1.152637
v 0.201955 0.206433 -1.065091
v 1.081046 0.206434 -0.476575
v 0.766337 0.206434 -0.752548
v 0.478445 0.206433 -0.968315
v 1.297356 0.206434 -0.278263
v 0.893342 0.206434 -0.582721
v 0.572624 0.206434 -0.858843
v 1.378246 0.206434 -0.114767
v 1.412600 0.206434 0.303385
v 1.470874 0.206434 0.063293
v 0.992835 0.206434 0.401457
v 1.447619 0.206434 0.206135
v 1.064699 0.206434 0.362780
v 0.818982 0.206434 0.595153
v 0.865294 0.206434 0.514355
v 0.780759 0.206434 0.686982
v 0.579152 0.206434 1.085419
v 0.194240 0.206434 1.078080
v 0.113705 0.206434 1.091246
v -0.369805 0.206434 1.083816
v -0.224206 0.206434 1.098726
v -0.498858 0.206434 1.035817
v -0.743234 0.206434 0.951152
v -1.094986 0.206434 0.464841
v -1.169017 0.206434 0.252499
v -1.001218 0.206434 0.665703
v -1.070103 0.206434 0.548953
v 0.773784 0.206434 -0.009238
v -0.941040 -0.206434 0.795406
v 0.726747 -0.206433 0.994878
v -0.589922 -0.206434 -1.087956
v 0.304911 -0.206434 -1.065488
v 1.454880 -0.206434 -0.009143
v -1.186567 -0.206434 -0.078156
v -1.192839 -0.206434 -0.227807
v -1.027711 -0.206434 -0.670235
v -1.153954 -0.206434 -0.417254
v -0.763814 -0.206434 -0.931156
v -0.923117 -0.206434 -0.809078
v -1.091715 -0.206434 -0.519920
v -0.466887 -0.206434 -1.116523
v -0.340517 -0.206434 -1.158892
v 0.059680 -0.206434 -1.104524
v -0.068298 -0.206434 -1.152637
v 0.201955 -0.206434 -1.065091
v 1.081046 -0.206434 -0.476575
v 0.766337 -0.206434 -0.752548
v 0.478445 -0.206434 -0.968315
v 1.297356 -0.206434 -0.278263
v 0.893342 -0.206434 -0.582720
v 0.572624 -0.206434 -0.858843
v 1.378246 -0.206434 -0.114767
v 1.412600 -0.206434 0.303385
v 1.470874 -0.206434 0.063293
v 0.992835 -0.206434 0.401457
v 1.447619 -0.206434 0.206135
v 1.064699 -0.206434 0.362780
v 0.818982 -0.206434 0.595153
v 0.865294 -0.206434 0.514355
v 0.780759 -0.206434 0.686982
v 0.579152 -0.206433 1.085419
v 0.194240 -0.206433 1.078080
v 0.113705 -0.206433 1.091246
v -0.369805 -0.206433 1.083816
v -0.224206 -0.206433 1.098726
v -0.498858 -0.206433 1.035817
v -0.743234 -0.206433 0.951152
v -1.094986 -0.206434 0.464842
v -1.169017 -0.206434 0.252499
v -1.001218 -0.206434 0.665704
v -1.070103 -0.206434 0.548953
v 0.773784 -0.206434 -0.009238
vn -0.2723 -0.0000 -0.9622
vn -0.5083 -0.0947 -0.8560
vn -0.3760 0.0546 -0.9250
vn -0.0399 -0.0000 0.9992
vn 0.0920 -0.0000 0.9958
vn 0.8270 -0.0000 0.5622
vn 0.9599 -0.0000 0.2802
vn 0.9996 -0.0000 -0.0280
vn 0.9121 -0.0000 -0.4100
vn 0.9680 -0.0000 0.2508
vn 0.3254 -0.0000 0.9456
vn 0.6420 -0.0000 0.7667
vn 0.7744 -0.0520 0.6305
vn 0.8072 -0.0000 0.5903
vn 0.5718 -0.0363 0.8196
vn 0.5420 -0.0000 0.8404
vn -0.9560 0.0254 0.2924
vn -0.9437 -0.0147 0.3306
vn -0.9110 -0.0244 0.4117
vn -0.9263 0.0141 0.3764
vn 0.2506 -0.0000 -0.9681
vn 0.1329 -0.0000 -0.9911
vn 0.7996 -0.0000 -0.6005
vn 0.5692 -0.0000 -0.8222
vn 0.5876 0.0228 -0.8088
vn -0.7100 -0.0000 -0.7042
vn -0.8658 -0.0000 -0.5004
vn -0.8899 -0.0000 -0.4562
vn -0.9310 -0.0000 -0.3651
vn 0.8972 -0.0000 0.4417
vn 0.8559 -0.0000 -0.5172
vn -0.9986 -0.0000 0.0530
vn -0.9719 -0.0615 0.2274
vn -0.9906 0.0355 0.1322
vn -0.6215 0.0391 -0.7825
vn -0.6689 -0.0226 -0.7430
vn -0.0000 1.0000 -0.0000
vn 0.0951 -0.0413 0.9946
vn 0.0302 0.0238 0.9993
vn 0.2944 -0.0192 0.9555
vn 0.2437 0.0333 0.9693
vn 0.3098 -0.0000 -0.9508
vn -0.9974 -0.0202 -0.0686
vn -0.9949 0.0116 -0.1003
vn -0.8911 0.0229 0.4532
vn -0.8743 -0.0132 0.4852
vn -0.7715 -0.0342 0.6353
vn -0.8050 0.0198 0.5930
vn 0.6297 -0.0000 -0.7769
vn 0.6330 -0.0000 -0.7742
vn -0.4757 0.1274 0.8703
vn -0.4757 -0.1274 0.8703
vn -0.3103 -0.0169 0.9505
vn -0.3537 0.0292 0.9349
vn -0.2271 -0.0000 0.9739
vn 0.6949 -0.0000 -0.7191
vn 0.6599 0.0466 -0.7499
vn 0.6558 -0.0000 -0.7549
vn 0.1938 0.0021 -0.9810
vn 0.1881 -0.0038 -0.9821
vn -0.1514 -0.0010 -0.9885
vn -0.1487 0.0018 -0.9889
vn -0.9838 -0.0000 0.1795
vn 0.0321 0.9991 0.0294
vn -0.0000 -1.0000 -0.0000
vn 0.0321 -0.9991 0.0294
vt 0.687652 0.114061
vt 0.687652 0.158212
vt 0.675266 0.158212
vt 0.675266 0.114061
vt 0.747827 0.158212
vt 0.747827 0.202363
vt 0.711715 0.202363
vt 0.711715 0.158212
vt 0.883633 0.202363
vt 0.883633 0.246514
vt 0.850260 0.246514
vt 0.850260 0.202363
vt 0.691100 0.272934
vt 0.735251 0.272934
vt 0.735251 0.280082
vt 0.691100 0.280082
vt 0.691100 0.257496
vt 0.735251 0.257496
vt 0.683166 0.246514
vt 0.683166 0.290665
vt 0.645631 0.290665
vt 0.645631 0.246514
vt 0.830219 0.202363
vt 0.830219 0.246514
vt 0.815340 0.246514
vt 0.815340 0.202363
vt 0.682899 0.202363
vt 0.682899 0.246514
vt 0.673625 0.246514
vt 0.673625 0.202363
vt 0.769808 0.158212
vt 0.758988 0.158212
vt 0.758988 0.114061
vt 0.769808 0.114061
vt 0.889439 0.114061
vt 0.889439 0.158212
vt 0.862846 0.158212
vt 0.862846 0.114061
vt 0.802160 0.246514
vt 0.802160 0.202363
vt 0.691100 0.246514
vt 0.691100 0.290665
vt 0.787171 0.202363
vt 0.787171 0.246514
vt 0.777205 0.246514
vt 0.777205 0.202363
vt 0.839764 0.246514
vt 0.839764 0.202363
vt 0.735251 0.246514
vt 0.779402 0.246514
vt 0.779402 0.261549
vt 0.735251 0.261549
vt 0.741759 0.202363
vt 0.741759 0.246514
vt 0.706475 0.246514
vt 0.706475 0.202363
vt 0.660018 0.114061
vt 0.660018 0.158212
vt 0.645631 0.158212
vt 0.645631 0.114061
vt 0.855581 0.659819
vt 0.847340 0.783643
vt 0.755140 0.584324
vt 0.703030 0.202363
vt 0.703030 0.158212
vt 0.662003 0.202363
vt 0.662003 0.158212
vt 0.803001 0.932811
vt 0.785141 0.951345
vt 0.734965 0.965787
vt 0.969417 0.752092
vt 0.953845 0.808500
vt 0.902850 0.720366
vt 0.972119 0.777745
vt 0.968544 0.790474
vt 0.743261 0.158212
vt 0.743261 0.114061
vt 0.757704 0.246514
vt 0.757704 0.202363
vt 0.660251 0.202363
vt 0.660251 0.246514
vt 0.645631 0.202363
vt 0.801968 0.114061
vt 0.801968 0.158212
vt 0.789941 0.158212
vt 0.789941 0.114061
vt 0.802204 0.158212
vt 0.802204 0.202363
vt 0.776705 0.202363
vt 0.776705 0.158212
vt 0.763262 0.202363
vt 0.763262 0.158212
vt 0.849065 0.604484
vt 0.823710 0.586888
vt 0.937807 0.836781
vt 0.841049 0.114061
vt 0.841049 0.158212
vt 0.824400 0.158212
vt 0.824400 0.114061
vt 0.728869 0.114061
vt 0.728869 0.158212
vt 0.700120 0.158212
vt 0.700120 0.114061
vt 0.564450 0.932243
vt 0.510233 0.855766
vt 0.861459 0.676544
vt 0.868888 0.691388
vt 0.822245 0.158212
vt 0.822245 0.202363
vt 0.897320 0.869897
vt 0.862850 0.886899
vt 0.838542 0.915843
vt 0.964163 0.734433
vt 0.890450 0.712761
vt 0.753283 0.966893
vt 0.740941 0.581172
vt 0.680883 0.576443
vt 0.631375 0.584877
vt 0.654823 0.577633
vt 0.550271 0.623213
vt 0.587036 0.597487
vt 0.538257 0.645689
vt 0.519552 0.680491
vt 0.524825 0.665773
vt 0.709251 0.971374
vt 0.685993 0.978649
vt 0.615425 0.968215
vt 0.637487 0.977026
vt 0.593818 0.961895
vt 0.497795 0.776199
vt 0.504243 0.717534
vt 0.500190 0.836870
vt 0.495175 0.802766
vt 0.537329 0.908917
vt 0.520112 0.883158
vt 0.379722 0.680738
vt 0.288452 0.609100
vt 0.369722 0.794895
vt 0.325906 0.931752
vt 0.262457 0.960881
vt 0.309059 0.948517
vt 0.483034 0.768124
vt 0.422191 0.737549
vt 0.467568 0.819900
vt 0.485033 0.791860
vt 0.481487 0.803543
vt 0.374775 0.629526
vt 0.351707 0.612792
vt 0.452215 0.845700
vt 0.057108 0.854966
vt 0.105684 0.926618
vt 0.391398 0.710140
vt 0.384826 0.696292
vt 0.414197 0.875490
vt 0.382046 0.890521
vt 0.359045 0.916773
vt 0.478524 0.751721
vt 0.410891 0.730288
vt 0.279347 0.962255
vt 0.275404 0.605915
vt 0.220050 0.600390
vt 0.174181 0.607219
vt 0.195968 0.600984
vt 0.098563 0.641045
vt 0.087039 0.661563
vt 0.133003 0.618004
vt 0.069097 0.693330
vt 0.074250 0.679845
vt 0.238609 0.965542
vt 0.152050 0.960813
vt 0.216997 0.971809
vt 0.172248 0.969373
vt 0.132224 0.954560
vt 0.047162 0.781269
vt 0.054248 0.727233
vt 0.048201 0.837327
vt 0.044229 0.805745
vt 0.081096 0.904560
vt 0.065698 0.880446
vt 0.823553 0.246514
vt 0.823553 0.256621
vt 0.779402 0.256621
s 1
usemtl Grilled
f 13/1/1 57/2/1 47/3/2 3/4/3
f 37/5/4 81/6/4 79/7/5 35/8/5
f 2/9/6 46/10/6 76/11/7 32/12/7
f 26/13/8 70/14/8 49/15/9 5/16/9
f 28/17/10 72/18/10 70/14/8 26/13/8
f 29/19/11 73/20/11 69/21/12 25/22/12
f 31/23/13 75/24/14 71/25/15 27/26/16
f 40/27/17 84/28/18 87/29/19 43/30/20
f 48/31/21 61/32/22 17/33/22 4/34/21
f 21/35/23 65/36/23 62/37/24 18/38/25
f 11/26/26 55/25/26 52/39/27 8/40/27
f 27/41/16 71/42/15 73/20/11 29/19/11
f 12/43/28 56/44/28 53/45/29 9/46/29
f 32/12/7 76/11/7 74/47/30 30/48/30
f 30/48/30 74/47/30 75/24/14 31/23/13
f 24/49/31 68/50/31 65/51/23 21/52/23
f 6/53/32 50/54/32 85/55/33 41/56/34
f 10/57/35 54/58/36 55/59/26 11/60/26
f 8/40/27 52/39/27 56/44/28 12/43/28
f 3/4/3 47/3/2 54/58/36 10/57/35
f 32/61/37 44/62/37 34/63/37
f 35/8/5 79/7/5 78/64/38 34/65/39
f 34/65/39 78/64/38 77/66/40 33/67/41
f 23/68/37 20/69/37 17/70/37
f 28/71/37 24/72/37 29/73/37
f 26/74/37 5/75/37 24/72/37
f 17/33/22 61/32/22 59/76/42 15/77/42
f 9/46/29 53/45/29 51/78/43 7/79/44
f 42/80/45 86/81/46 45/22/47 1/82/48
f 23/83/49 67/84/49 64/85/50 20/86/50
f 39/87/51 83/88/52 82/89/53 38/90/54
f 38/90/54 82/89/53 80/91/55 36/92/55
f 2/93/37 32/61/37 33/94/37
f 25/41/12 69/49/12 72/18/10 28/17/10
f 33/67/41 77/66/40 46/82/6 2/59/6
f 24/72/37 21/95/37 44/62/37
f 22/96/56 66/97/57 63/98/58 19/99/58
f 18/38/25 62/37/24 66/97/57 22/96/56
f 16/100/59 60/101/60 58/102/61 14/103/62
f 15/77/42 59/76/42 60/101/60 16/100/59
f 19/99/58 63/98/58 67/84/49 23/83/49
f 43/30/20 87/29/19 86/81/46 42/80/45
f 36/92/55 80/91/55 81/6/4 37/5/4
f 44/62/37 10/104/37 12/105/37
f 44/62/37 30/106/37 31/107/37
f 14/103/62 58/102/61 57/2/1 13/1/1
f 48/31/21 4/34/21 20/86/50 64/85/50
f 7/79/44 51/78/43 50/54/63 6/53/63
f 1/108/48 45/109/47 83/88/52 39/87/51
f 21/95/37 18/110/64 44/62/37
f 22/111/37 19/112/37 44/62/37
f 18/110/64 22/111/37 44/62/37
f 28/71/37 26/74/37 24/72/37
f 29/73/37 25/113/37 28/71/37
f 44/62/37 29/73/37 24/72/37
f 27/114/37 29/73/37 44/62/37
f 44/62/37 32/61/37 30/106/37
f 31/107/37 27/114/37 44/62/37
f 44/62/37 19/112/37 23/68/37
f 20/69/37 4/115/37 17/70/37
f 32/61/37 34/63/37 33/94/37
f 44/62/37 23/68/37 17/70/37
f 34/63/37 44/62/37 35/116/37
f 37/117/37 35/116/37 44/62/37
f 38/118/37 36/119/37 37/117/37
f 1/120/37 39/121/37 42/122/37
f 39/121/37 38/118/37 42/122/37
f 40/123/37 43/124/37 42/122/37
f 38/118/37 37/117/37 44/62/37
f 15/125/37 44/62/37 17/70/37
f 15/125/37 16/126/37 13/127/37
f 16/126/37 14/128/37 13/127/37
f 13/127/37 3/129/37 10/104/37
f 44/62/37 15/125/37 10/104/37
f 38/118/37 40/123/37 42/122/37
f 44/62/37 40/123/37 38/118/37
f 6/130/37 41/131/37 44/62/37
f 9/132/37 7/133/37 12/105/37
f 7/133/37 6/130/37 12/105/37
f 11/134/37 8/135/37 10/104/37
f 8/135/37 12/105/37 10/104/37
f 41/131/37 40/123/37 44/62/37
f 15/125/37 13/127/37 10/104/37
f 12/105/37 6/130/37 44/62/37
f 76/136/65 78/137/65 88/138/65
f 67/139/65 61/140/65 64/141/65
f 72/142/65 73/143/65 68/144/65
f 70/145/65 68/144/65 49/146/65
f 46/147/65 77/148/65 76/136/65
f 68/144/65 88/138/65 65/149/65
f 88/138/65 56/150/65 54/151/65
f 88/138/65 75/152/65 74/153/65
f 65/149/65 88/138/65 62/154/66
f 66/155/65 88/138/65 63/156/65
f 62/154/66 88/138/65 66/155/65
f 72/142/65 68/144/65 70/145/65
f 73/143/65 72/142/65 69/157/65
f 88/138/65 68/144/65 73/143/65
f 71/158/65 88/138/65 73/143/65
f 88/138/65 74/153/65 76/136/65
f 75/152/65 88/138/65 71/158/65
f 88/138/65 67/139/65 63/156/65
f 64/141/65 61/140/65 48/159/65
f 76/136/65 77/148/65 78/137/65
f 88/138/65 61/140/65 67/139/65
f 78/137/65 79/160/65 88/138/65
f 81/161/65 88/138/65 79/160/65
f 82/162/65 81/161/65 80/163/65
f 45/164/65 86/165/65 83/166/65
f 83/166/65 86/165/65 82/162/65
f 84/167/65 86/165/65 87/168/65
f 82/162/65 88/138/65 81/161/65
f 59/169/65 61/140/65 88/138/65
f 59/169/65 57/170/65 60/171/65
f 60/171/65 57/170/65 58/172/65
f 57/170/65 54/151/65 47/173/65
f 88/138/65 54/151/65 59/169/65
f 82/162/65 86/165/65 84/167/65
f 88/138/65 82/162/65 84/167/65
f 50/174/65 88/138/65 85/175/65
f 53/176/65 56/150/65 51/177/65
f 51/177/65 56/150/65 50/174/65
f 55/178/65 54/151/65 52/179/65
f 52/179/65 54/151/65 56/150/65
f 85/175/65 88/138/65 84/167/65
f 59/169/65 54/151/65 57/170/65
f 56/150/65 88/138/65 50/174/65
f 5/50/9 49/180/9 68/181/31 24/182/31
f 40/27/17 41/56/34 85/55/33 84/28/18
